<svg xmlns="http://www.w3.org/2000/svg" xmlns:xlink="http://www.w3.org/1999/xlink" version="1.1" data-diagram-type="SEQUENCE" style="width:120px;height:179px;background:#FFFFFF;" width="120px" height="179px" viewBox="0 0 120 179" zoomAndPan="magnify" preserveAspectRatio="none" contentStyleType="text/css"><defs/><g font-family="sans-serif" lengthAdjust="spacing"><g><title>a</title><rect x="17.394" y="39" width="8" height="100" fill="#000" fill-opacity="0"/><line x1="20.894" y1="39" x2="20.894" y2="139" style="stroke:#181818;stroke-width:0.5;stroke-dasharray:5,5;"/></g><g><title>b</title><rect x="94.856" y="39" width="8" height="100" fill="#000" fill-opacity="0"/><line x1="98.356" y1="39" x2="98.356" y2="139" style="stroke:#181818;stroke-width:0.5;stroke-dasharray:5,5;"/></g><rect x="10" y="10" width="21.788" height="28" fill="#E2E2F0" rx="2.5" ry="2.5" style="stroke:#181818;stroke-width:0.5;"/><text x="17" y="27.889" fill="#000" font-size="14">a</text><rect x="87.463" y="10" width="21.788" height="28" fill="#E2E2F0" rx="2.5" ry="2.5" style="stroke:#181818;stroke-width:0.5;"/><text x="94.463" y="27.889" fill="#000" font-size="14">b</text><rect x="10" y="139" width="21.788" height="28" fill="#E2E2F0" rx="2.5" ry="2.5" style="stroke:#181818;stroke-width:0.5;"/><text x="17" y="156.889" fill="#000" font-size="14">a</text><rect x="87.463" y="139" width="21.788" height="28" fill="#E2E2F0" rx="2.5" ry="2.5" style="stroke:#181818;stroke-width:0.5;"/><text x="94.463" y="156.889" fill="#000" font-size="14">b</text><polygon points="86.356,49,96.356,53,86.356,57,90.356,53" fill="#181818" style="stroke:#181818;stroke-width:1;stroke-linejoin:miter;stroke-miterlimit:10;"/><line x1="20.894" y1="53" x2="92.356" y2="53" style="stroke:#181818;stroke-width:1;"/><polygon points="31.894,63,21.894,67,31.894,71,27.894,67" fill="#181818" style="stroke:#181818;stroke-width:1;stroke-linejoin:miter;stroke-miterlimit:10;"/><line x1="25.894" y1="67" x2="97.356" y2="67" style="stroke:#181818;stroke-width:1;stroke-dasharray:2,2;"/><polygon points="86.356,90,96.356,94,86.356,98,90.356,94" fill="#181818" style="stroke:#181818;stroke-width:1;stroke-linejoin:miter;stroke-miterlimit:10;"/><line x1="20.894" y1="94" x2="92.356" y2="94" style="stroke:#181818;stroke-width:1;"/><text x="27.894" y="89.111" fill="#000" font-size="13" textLength="43.306">request</text><polygon points="31.894,117,21.894,121,31.894,125,27.894,121" fill="#181818" style="stroke:#181818;stroke-width:1;stroke-linejoin:miter;stroke-miterlimit:10;"/><line x1="25.894" y1="121" x2="97.356" y2="121" style="stroke:#181818;stroke-width:1;stroke-dasharray:2,2;"/><text x="37.894" y="116.111" fill="#000" font-size="13" textLength="53.462">response</text></g></svg>