<svg xmlns="http://www.w3.org/2000/svg" xmlns:xlink="http://www.w3.org/1999/xlink" version="1.1" data-diagram-type="SEQUENCE" style="width:317px;height:180px;background:#FFFFFF;" width="317px" height="180px" viewBox="0 0 317 180" zoomAndPan="magnify" preserveAspectRatio="none" contentStyleType="text/css"><defs/><g font-family="sans-serif" lengthAdjust="spacing"><rect x="148.681" y="51" width="149.062" height="109" fill="none" style="stroke:#000;stroke-width:1.5;"/><g><title>Random Name"</title><rect x="61.144" y="39" width="8" height="130" fill="#000" fill-opacity="0"/><line x1="64.644" y1="39" x2="64.644" y2="169" style="stroke:#181818;stroke-width:0.5;stroke-dasharray:5,5;"/></g><g><title>bossrpcp</title><rect x="161.181" y="39" width="8" height="130" fill="#000" fill-opacity="0"/><line x1="164.681" y1="39" x2="164.681" y2="169" style="stroke:#181818;stroke-width:0.5;stroke-dasharray:5,5;"/></g><g><title>B</title><rect x="228.488" y="39" width="8" height="130" fill="#000" fill-opacity="0"/><line x1="231.988" y1="39" x2="231.988" y2="169" style="stroke:#181818;stroke-width:0.5;stroke-dasharray:5,5;"/></g><rect x="10" y="10" width="109.288" height="28" fill="#E2E2F0" rx="2.5" ry="2.5" style="stroke:#181818;stroke-width:0.5;"/><text x="17" y="27.889" fill="#000" font-size="14" textLength="95.288">Random Name"</text><rect x="129.288" y="10" width="70.788" height="28" fill="#E2E2F0" rx="2.5" ry="2.5" style="stroke:#181818;stroke-width:0.5;"/><text x="136.288" y="27.889" fill="#000" font-size="14" textLength="56.787">bossrpcp</text><rect x="220.306" y="10" width="23.362" height="28" fill="#E2E2F0" rx="2.5" ry="2.5" style="stroke:#181818;stroke-width:0.5;"/><text x="227.306" y="27.889" fill="#000" font-size="14">B</text><path d="M148.681,51 L207.413,51 L207.413,56 L197.413,66 L148.681,66 L148.681,51" fill="#EEE" style="stroke:#000;stroke-width:1.5;"/><rect x="148.681" y="51" width="149.062" height="109" fill="none" style="stroke:#000;stroke-width:1.5;"/><text x="163.681" y="62.111" fill="#000" font-size="13" textLength="13.731" font-weight="700">alt</text><text x="222.413" y="61.556" fill="#000" font-size="11" textLength="59.331" font-weight="700">[REQUEST]</text><polygon points="219.988,91,229.988,95,219.988,99,223.988,95" fill="#181818" style="stroke:#181818;stroke-width:1;stroke-linejoin:miter;stroke-miterlimit:10;"/><line x1="164.681" y1="95" x2="225.988" y2="95" style="stroke:#181818;stroke-width:1;"/><text x="171.681" y="90.111" fill="#000" font-size="13" textLength="43.306">request</text><line x1="148.681" y1="104" x2="297.744" y2="104" style="stroke:#000;stroke-width:1;stroke-dasharray:2,2;"/><text x="153.681" y="114.556" fill="#000" font-size="11" textLength="67.306" font-weight="700">[RESPONSE]</text><line x1="164.681" y1="139" x2="206.681" y2="139" style="stroke:#181818;stroke-width:1;"/><line x1="206.681" y1="139" x2="206.681" y2="152" style="stroke:#181818;stroke-width:1;"/><line x1="165.681" y1="152" x2="206.681" y2="152" style="stroke:#181818;stroke-width:1;"/><polygon points="175.681,148,165.681,152,175.681,156,171.681,152" fill="#181818" style="stroke:#181818;stroke-width:1;stroke-linejoin:miter;stroke-miterlimit:10;"/><text x="171.681" y="134.111" fill="#000" font-size="13" textLength="46.963">respond</text><line x1="64.644" y1="66" x2="106.644" y2="66" style="stroke:#181818;stroke-width:1;"/><line x1="106.644" y1="66" x2="106.644" y2="79" style="stroke:#181818;stroke-width:1;"/><line x1="65.644" y1="79" x2="106.644" y2="79" style="stroke:#181818;stroke-width:1;"/><polygon points="75.644,75,65.644,79,75.644,83,71.644,79" fill="#181818" style="stroke:#181818;stroke-width:1;stroke-linejoin:miter;stroke-miterlimit:10;"/><text x="71.644" y="61.111" fill="#000" font-size="13" textLength="20.881">test</text></g></svg>