<svg xmlns="http://www.w3.org/2000/svg" xmlns:xlink="http://www.w3.org/1999/xlink" version="1.1" data-diagram-type="SEQUENCE" style="width:432px;height:293px;background:#FFFFFF;" width="432px" height="293px" viewBox="0 0 432 293" zoomAndPan="magnify" preserveAspectRatio="none" contentStyleType="text/css"><defs/><g font-family="sans-serif" lengthAdjust="spacing"><rect x="218.956" y="51" width="193.063" height="222" fill="none" style="stroke:#000;stroke-width:1.5;"/><rect x="237.956" y="80" width="149.063" height="179" fill="none" style="stroke:#000;stroke-width:1.5;"/><g><title>Random Name"</title><rect x="61.144" y="39" width="8" height="243" fill="#000" fill-opacity="0"/><line x1="64.644" y1="39" x2="64.644" y2="282" style="stroke:#181818;stroke-width:0.5;stroke-dasharray:5,5;"/></g><g><title>bossrpcp</title><rect x="250.456" y="39" width="8" height="243" fill="#000" fill-opacity="0"/><line x1="253.956" y1="39" x2="253.956" y2="282" style="stroke:#181818;stroke-width:0.5;stroke-dasharray:5,5;"/></g><rect x="10" y="10" width="109.288" height="28" fill="#E2E2F0" rx="2.5" ry="2.5" style="stroke:#181818;stroke-width:0.5;"/><text x="17" y="27.889" fill="#000" font-size="14" textLength="95.288">Random Name"</text><rect x="218.563" y="10" width="70.788" height="28" fill="#E2E2F0" rx="2.5" ry="2.5" style="stroke:#181818;stroke-width:0.5;"/><text x="225.563" y="27.889" fill="#000" font-size="14" textLength="56.787">bossrpcp</text><path d="M218.956,51 L281.994,51 L281.994,56 L271.994,66 L218.956,66 L218.956,51" fill="#EEE" style="stroke:#000;stroke-width:1.5;"/><rect x="218.956" y="51" width="193.063" height="222" fill="none" style="stroke:#000;stroke-width:1.5;"/><text x="233.956" y="62.111" fill="#000" font-size="13" textLength="18.038" font-weight="700">opt</text><text x="296.994" y="61.556" fill="#000" font-size="11" textLength="92.263" font-weight="700">[message received]</text><path d="M237.956,80 L296.688,80 L296.688,85 L286.688,95 L237.956,95 L237.956,80" fill="#EEE" style="stroke:#000;stroke-width:1.5;"/><rect x="237.956" y="80" width="149.063" height="179" fill="none" style="stroke:#000;stroke-width:1.5;"/><text x="252.956" y="91.111" fill="#000" font-size="13" textLength="13.731" font-weight="700">alt</text><text x="311.688" y="90.556" fill="#000" font-size="11" textLength="59.331" font-weight="700">[REQUEST]</text><line x1="253.956" y1="124" x2="295.956" y2="124" style="stroke:#181818;stroke-width:1;"/><line x1="295.956" y1="124" x2="295.956" y2="137" style="stroke:#181818;stroke-width:1;"/><line x1="254.956" y1="137" x2="295.956" y2="137" style="stroke:#181818;stroke-width:1;"/><polygon points="264.956,133,254.956,137,264.956,141,260.956,137" fill="#181818" style="stroke:#181818;stroke-width:1;stroke-linejoin:miter;stroke-miterlimit:10;"/><text x="260.956" y="119.111" fill="#000" font-size="13" textLength="43.306">request</text><line x1="237.956" y1="146" x2="387.019" y2="146" style="stroke:#000;stroke-width:1;stroke-dasharray:2,2;"/><text x="242.956" y="156.556" fill="#000" font-size="11" textLength="67.306" font-weight="700">[RESPONSE]</text><line x1="253.956" y1="181" x2="295.956" y2="181" style="stroke:#181818;stroke-width:1;"/><line x1="295.956" y1="181" x2="295.956" y2="194" style="stroke:#181818;stroke-width:1;"/><line x1="254.956" y1="194" x2="295.956" y2="194" style="stroke:#181818;stroke-width:1;"/><polygon points="264.956,190,254.956,194,264.956,198,260.956,194" fill="#181818" style="stroke:#181818;stroke-width:1;stroke-linejoin:miter;stroke-miterlimit:10;"/><text x="260.956" y="176.111" fill="#000" font-size="13" textLength="46.963">respond</text><line x1="237.956" y1="203" x2="387.019" y2="203" style="stroke:#000;stroke-width:1;stroke-dasharray:2,2;"/><text x="242.956" y="213.556" fill="#000" font-size="11" textLength="40.288" font-weight="700">[AGAIN]</text><line x1="253.956" y1="238" x2="295.956" y2="238" style="stroke:#181818;stroke-width:1;"/><line x1="295.956" y1="238" x2="295.956" y2="251" style="stroke:#181818;stroke-width:1;"/><line x1="254.956" y1="251" x2="295.956" y2="251" style="stroke:#181818;stroke-width:1;"/><polygon points="264.956,247,254.956,251,264.956,255,260.956,251" fill="#181818" style="stroke:#181818;stroke-width:1;stroke-linejoin:miter;stroke-miterlimit:10;"/><text x="260.956" y="233.111" fill="#000" font-size="13" textLength="43.306">request</text><line x1="64.644" y1="66" x2="106.644" y2="66" style="stroke:#181818;stroke-width:1;"/><line x1="106.644" y1="66" x2="106.644" y2="79" style="stroke:#181818;stroke-width:1;"/><line x1="65.644" y1="79" x2="106.644" y2="79" style="stroke:#181818;stroke-width:1;"/><polygon points="75.644,75,65.644,79,75.644,83,71.644,79" fill="#181818" style="stroke:#181818;stroke-width:1;stroke-linejoin:miter;stroke-miterlimit:10;"/><text x="71.644" y="61.111" fill="#000" font-size="13" textLength="137.313">test which is very very long</text></g></svg>