<svg xmlns="http://www.w3.org/2000/svg" xmlns:xlink="http://www.w3.org/1999/xlink" version="1.1" data-diagram-type="SEQUENCE" style="width:277px;height:262px;background:#FFFFFF;" width="277px" height="262px" viewBox="0 0 277 262" zoomAndPan="magnify" preserveAspectRatio="none" contentStyleType="text/css"><defs/><g font-family="sans-serif" lengthAdjust="spacing"><rect x="143.694" y="78" width="85.963" height="148" fill="none" style="stroke:#000;stroke-width:1.5;"/><g><title>Random Name</title><rect x="58.65" y="39" width="8" height="211" fill="#000" fill-opacity="0"/><line x1="62.15" y1="39" x2="62.15" y2="250" style="stroke:#181818;stroke-width:0.5;stroke-dasharray:5,5;"/></g><g><title>bossrpcp</title><rect x="156.194" y="39" width="8" height="211" fill="#000" fill-opacity="0"/><line x1="159.694" y1="39" x2="159.694" y2="250" style="stroke:#181818;stroke-width:0.5;stroke-dasharray:5,5;"/></g><rect x="10" y="10" width="104.3" height="28" fill="#E2E2F0" rx="2.5" ry="2.5" style="stroke:#181818;stroke-width:0.5;"/><text x="17" y="27.889" fill="#000" font-size="14" textLength="90.3">Random Name</text><rect x="124.3" y="10" width="70.788" height="28" fill="#E2E2F0" rx="2.5" ry="2.5" style="stroke:#181818;stroke-width:0.5;"/><text x="131.3" y="27.889" fill="#000" font-size="14" textLength="56.787">bossrpcp</text><line x1="62.15" y1="66" x2="104.15" y2="66" style="stroke:#181818;stroke-width:1;"/><line x1="104.15" y1="66" x2="104.15" y2="79" style="stroke:#181818;stroke-width:1;"/><line x1="63.15" y1="79" x2="104.15" y2="79" style="stroke:#181818;stroke-width:1;"/><polygon points="73.15,75,63.15,79,73.15,83,69.15,79" fill="#181818" style="stroke:#181818;stroke-width:1;stroke-linejoin:miter;stroke-miterlimit:10;"/><text x="69.15" y="61.111" fill="#000" font-size="13" textLength="20.881">test</text><path d="M143.694,78 L202.425,78 L202.425,83 L192.425,93 L143.694,93 L143.694,78" fill="#EEE" style="stroke:#000;stroke-width:1.5;"/><rect x="143.694" y="78" width="85.963" height="148" fill="none" style="stroke:#000;stroke-width:1.5;"/><text x="158.694" y="89.111" fill="#000" font-size="13" textLength="13.731" font-weight="700">alt</text><text x="217.425" y="88.556" fill="#000" font-size="11" textLength="59.331" font-weight="700">[REQUEST]</text><line x1="159.694" y1="122" x2="201.694" y2="122" style="stroke:#181818;stroke-width:1;"/><line x1="201.694" y1="122" x2="201.694" y2="135" style="stroke:#181818;stroke-width:1;"/><line x1="160.694" y1="135" x2="201.694" y2="135" style="stroke:#181818;stroke-width:1;"/><polygon points="170.694,131,160.694,135,170.694,139,166.694,135" fill="#181818" style="stroke:#181818;stroke-width:1;stroke-linejoin:miter;stroke-miterlimit:10;"/><text x="166.694" y="117.111" fill="#000" font-size="13" textLength="43.306">request</text><line x1="143.694" y1="161" x2="229.656" y2="161" style="stroke:#000;stroke-width:1;stroke-dasharray:2,2;"/><text x="148.694" y="171.556" fill="#000" font-size="11" textLength="67.306" font-weight="700">[RESPONSE]</text><line x1="159.694" y1="205" x2="201.694" y2="205" style="stroke:#181818;stroke-width:1;"/><line x1="201.694" y1="205" x2="201.694" y2="218" style="stroke:#181818;stroke-width:1;"/><line x1="160.694" y1="218" x2="201.694" y2="218" style="stroke:#181818;stroke-width:1;"/><polygon points="170.694,214,160.694,218,170.694,222,166.694,218" fill="#181818" style="stroke:#181818;stroke-width:1;stroke-linejoin:miter;stroke-miterlimit:10;"/><text x="166.694" y="200.111" fill="#000" font-size="13" textLength="46.963">respond</text></g></svg>