<svg xmlns="http://www.w3.org/2000/svg" xmlns:xlink="http://www.w3.org/1999/xlink" contentStyleType="text/css" data-diagram-type="SEQUENCE" height="313px" preserveAspectRatio="none" style="width:357px;height:313px;background:#FFFFFF;" version="1.1" viewBox="0 0 357 313" width="357px" zoomAndPan="magnify"><?plantuml 1.2026.6?><defs/><g><g><title>Random Name</title><rect fill="#000000" fill-opacity="0.00000" height="258.012" width="8" x="62.7518" y="44.0679"/><line style="stroke:#181818;stroke-width:0.5;stroke-dasharray:5,5;" x1="66.2518" x2="66.2518" y1="44.0679" y2="302.0799"/></g><g><title>bossrpcp</title><rect fill="#000000" fill-opacity="0.00000" height="258.012" width="8" x="166.1105" y="44.0679"/><line style="stroke:#181818;stroke-width:0.5;stroke-dasharray:5,5;" x1="169.6105" x2="169.6105" y1="44.0679" y2="302.0799"/></g><rect fill="#E2E2F0" height="33.0679" rx="2.5" ry="2.5" style="stroke:#181818;stroke-width:0.5;" width="112.5036" x="10" y="10"/><text fill="#000000" font-family="sans-serif" font-size="14" lengthAdjust="spacing" textLength="98.5036" x="17" y="31.9659">Random Name</text><rect fill="#E2E2F0" height="33.0679" rx="2.5" ry="2.5" style="stroke:#181818;stroke-width:0.5;" width="74.2138" x="132.5036" y="10"/><text fill="#000000" font-family="sans-serif" font-size="14" lengthAdjust="spacing" textLength="60.2138" x="139.5036" y="31.9659">bossrpcp</text><line style="stroke:#181818;stroke-width:1;" x1="66.2518" x2="108.2518" y1="75.7739" y2="75.7739"/><line style="stroke:#181818;stroke-width:1;" x1="108.2518" x2="108.2518" y1="75.7739" y2="88.7739"/><line style="stroke:#181818;stroke-width:1;" x1="67.2518" x2="108.2518" y1="88.7739" y2="88.7739"/><polygon fill="#181818" points="77.2518,84.7739,67.2518,88.7739,77.2518,92.7739,73.2518,88.7739" style="stroke:#181818;stroke-width:1;stroke-linejoin:miter;stroke-miterlimit:10;"/><text fill="#000000" font-family="sans-serif" font-size="13" lengthAdjust="spacing" textLength="22.945" x="73.2518" y="69.9649">test</text><path d="M134.6105,78.2739 L201.5285,78.2739 L201.5285,87.9799 L191.5285,97.9799 L134.6105,97.9799 L134.6105,78.2739" fill="#EEEEEE" style="stroke:#000000;stroke-width:1.5;"/><rect fill="none" height="199.806" style="stroke:#000000;stroke-width:1.5;" width="203.1322" x="134.6105" y="78.2739"/><text fill="#000000" font-family="sans-serif" font-size="13" font-weight="700" lengthAdjust="spacing" textLength="21.918" x="149.6105" y="93.1709">opt</text><text fill="#000000" font-family="sans-serif" font-size="11" font-weight="700" lengthAdjust="spacing" textLength="105.2142" x="216.5285" y="92.0328">[message received]</text><path d="M153.6105,111.9799 L216.0695,111.9799 L216.0695,121.686 L206.0695,131.686 L153.6105,131.686 L153.6105,111.9799" fill="#EEEEEE" style="stroke:#000000;stroke-width:1.5;"/><rect fill="none" height="152.0999" style="stroke:#000000;stroke-width:1.5;" width="149.8226" x="153.6105" y="111.9799"/><text fill="#000000" font-family="sans-serif" font-size="13" font-weight="700" lengthAdjust="spacing" textLength="17.459" x="168.6105" y="126.877">alt</text><text fill="#000000" font-family="sans-serif" font-size="11" font-weight="700" lengthAdjust="spacing" textLength="56.3636" x="231.0695" y="125.7389">[REQUEST]</text><line style="stroke:#000000;stroke-width:1;stroke-dasharray:2,2;" x1="153.6105" x2="303.4331" y1="197.392" y2="197.392"/><text fill="#000000" font-family="sans-serif" font-size="11" font-weight="700" lengthAdjust="spacing" textLength="63.5905" x="158.6105" y="211.1509">[RESPONSE]</text><line style="stroke:#181818;stroke-width:1;" x1="169.6105" x2="211.6105" y1="165.392" y2="165.392"/><line style="stroke:#181818;stroke-width:1;" x1="211.6105" x2="211.6105" y1="165.392" y2="178.392"/><line style="stroke:#181818;stroke-width:1;" x1="170.6105" x2="211.6105" y1="178.392" y2="178.392"/><polygon fill="#181818" points="180.6105,174.392,170.6105,178.392,180.6105,182.392,176.6105,178.392" style="stroke:#181818;stroke-width:1;stroke-linejoin:miter;stroke-miterlimit:10;"/><text fill="#000000" font-family="sans-serif" font-size="13" lengthAdjust="spacing" textLength="46.982" x="176.6105" y="159.583">request</text><line style="stroke:#181818;stroke-width:1;" x1="169.6105" x2="211.6105" y1="243.0799" y2="243.0799"/><line style="stroke:#181818;stroke-width:1;" x1="211.6105" x2="211.6105" y1="243.0799" y2="256.0799"/><line style="stroke:#181818;stroke-width:1;" x1="170.6105" x2="211.6105" y1="256.0799" y2="256.0799"/><polygon fill="#181818" points="180.6105,252.0799,170.6105,256.0799,180.6105,260.0799,176.6105,256.0799" style="stroke:#181818;stroke-width:1;stroke-linejoin:miter;stroke-miterlimit:10;"/><text fill="#000000" font-family="sans-serif" font-size="13" lengthAdjust="spacing" textLength="50.817" x="176.6105" y="237.2709">respond</text><?plantuml-src XOqn3i8m34Ltdy9qOEC27TYo5cZX06vhIgIc3h6B4ASd0OcLBrd-N_BxtiH4Ko0qbXTQMXaWKZ8_-4YBOTNICah0XW9NI8fN4O2R7xauw-K9a0tkzYLZdNlK0BOeqJ2mAasCYGVs3nu1isWsRDtfuhhp9nVrefhY44lDpzUPkw-bhfpmh9ovxdXeElSVr2ZBzn_dNUOD?></g></svg>