<svg xmlns="http://www.w3.org/2000/svg" xmlns:xlink="http://www.w3.org/1999/xlink" version="1.1" data-diagram-type="SEQUENCE" style="width:329px;height:232px;background:#FFFFFF;" width="329px" height="232px" viewBox="0 0 329 232" zoomAndPan="magnify" preserveAspectRatio="none" contentStyleType="text/css"><defs/><g font-family="sans-serif" lengthAdjust="spacing"><rect x="177.578" y="51" width="85.963" height="119" fill="none" style="stroke:#000;stroke-width:1.5;"/><rect x="158.578" y="51" width="129.962" height="145" fill="none" style="stroke:#000;stroke-width:1.5;"/><g><title>Random Name</title><rect x="58.65" y="39" width="8" height="181" fill="#000" fill-opacity="0"/><line x1="62.15" y1="39" x2="62.15" y2="220" style="stroke:#181818;stroke-width:0.5;stroke-dasharray:5,5;"/></g><g><title>bossrpcp</title><rect x="190.078" y="39" width="8" height="181" fill="#000" fill-opacity="0"/><line x1="193.578" y1="39" x2="193.578" y2="220" style="stroke:#181818;stroke-width:0.5;stroke-dasharray:5,5;"/></g><g><title>&amp; foo</title><rect x="290.75" y="39" width="8" height="181" fill="#000" fill-opacity="0"/><line x1="294.25" y1="39" x2="294.25" y2="220" style="stroke:#181818;stroke-width:0.5;stroke-dasharray:5,5;"/></g><rect x="10" y="10" width="104.3" height="28" fill="#E2E2F0" rx="2.5" ry="2.5" style="stroke:#181818;stroke-width:0.5;"/><text x="17" y="27.889" fill="#000" font-size="14" textLength="90.3">Random Name</text><rect x="158.184" y="10" width="70.788" height="28" fill="#E2E2F0" rx="2.5" ry="2.5" style="stroke:#181818;stroke-width:0.5;"/><text x="165.184" y="27.889" fill="#000" font-size="14" textLength="56.787">bossrpcp</text><rect x="272.856" y="10" width="42.787" height="28" fill="#E2E2F0" rx="2.5" ry="2.5" style="stroke:#181818;stroke-width:0.5;"/><text x="279.856" y="27.889" fill="#000" font-size="14" textLength="28.787">&amp; foo</text><path d="M158.578,51 L221.616,51 L221.616,56 L211.616,66 L158.578,66 L158.578,51" fill="#EEE" style="stroke:#000;stroke-width:1.5;"/><rect x="158.578" y="51" width="129.962" height="145" fill="none" style="stroke:#000;stroke-width:1.5;"/><text x="173.578" y="62.111" fill="#000" font-size="13" textLength="18.038" font-weight="700">opt</text><text x="236.616" y="61.556" fill="#000" font-size="11" textLength="92.263" font-weight="700">[message received]</text><line x1="193.578" y1="95" x2="235.578" y2="95" style="stroke:#181818;stroke-width:1;"/><line x1="235.578" y1="95" x2="235.578" y2="108" style="stroke:#181818;stroke-width:1;"/><line x1="194.578" y1="108" x2="235.578" y2="108" style="stroke:#181818;stroke-width:1;"/><polygon points="204.578,104,194.578,108,204.578,112,200.578,108" fill="#181818" style="stroke:#181818;stroke-width:1;stroke-linejoin:miter;stroke-miterlimit:10;"/><text x="200.578" y="90.111" fill="#000" font-size="13" textLength="43.306">request</text><line x1="193.578" y1="122" x2="235.578" y2="122" style="stroke:#181818;stroke-width:1;"/><line x1="235.578" y1="122" x2="235.578" y2="135" style="stroke:#181818;stroke-width:1;"/><line x1="194.578" y1="135" x2="235.578" y2="135" style="stroke:#181818;stroke-width:1;"/><polygon points="204.578,131,194.578,135,204.578,139,200.578,135" fill="#181818" style="stroke:#181818;stroke-width:1;stroke-linejoin:miter;stroke-miterlimit:10;"/><text x="200.578" y="117.111" fill="#000" font-size="13" textLength="46.963">respond</text><line x1="193.578" y1="149" x2="235.578" y2="149" style="stroke:#181818;stroke-width:1;"/><line x1="235.578" y1="149" x2="235.578" y2="162" style="stroke:#181818;stroke-width:1;"/><line x1="194.578" y1="162" x2="235.578" y2="162" style="stroke:#181818;stroke-width:1;"/><polygon points="204.578,158,194.578,162,204.578,166,200.578,162" fill="#181818" style="stroke:#181818;stroke-width:1;stroke-linejoin:miter;stroke-miterlimit:10;"/><text x="200.578" y="144.111" fill="#000" font-size="13" textLength="43.306">request</text><polygon points="73.15,172,63.15,176,73.15,180,69.15,176" fill="#181818" style="stroke:#181818;stroke-width:1;stroke-linejoin:miter;stroke-miterlimit:10;"/><line x1="67.15" y1="176" x2="293.25" y2="176" style="stroke:#181818;stroke-width:1;stroke-dasharray:2,2;"/><text x="79.15" y="171.111" fill="#000" font-size="13" textLength="137.313">test which is very very long</text></g></svg>