<svg xmlns="http://www.w3.org/2000/svg" xmlns:xlink="http://www.w3.org/1999/xlink" version="1.1" data-diagram-type="SEQUENCE" style="width:161px;height:257px;background:#FFFFFF;" width="161px" height="257px" viewBox="0 0 161 257" zoomAndPan="magnify" preserveAspectRatio="none" contentStyleType="text/css"><defs/><g font-family="sans-serif" lengthAdjust="spacing"><g><title>Bob</title><rect x="25.969" y="39" width="8" height="178" fill="#000" fill-opacity="0"/><line x1="29.469" y1="39" x2="29.469" y2="217" style="stroke:#181818;stroke-width:0.5;stroke-dasharray:5,5;"/></g><g><title>Alice</title><rect x="124.55" y="39" width="8" height="178" fill="#000" fill-opacity="0"/><line x1="128.05" y1="39" x2="128.05" y2="217" style="stroke:#181818;stroke-width:0.5;stroke-dasharray:5,5;"/></g><rect x="10" y="10" width="38.938" height="28" fill="#E2E2F0" rx="2.5" ry="2.5" style="stroke:#181818;stroke-width:0.5;"/><text x="17" y="27.889" fill="#000" font-size="14" textLength="24.938">Bob</text><rect x="105.825" y="10" width="44.45" height="28" fill="#E2E2F0" rx="2.5" ry="2.5" style="stroke:#181818;stroke-width:0.5;"/><text x="112.825" y="27.889" fill="#000" font-size="14" textLength="30.45">Alice</text><rect x="10" y="217" width="38.938" height="28" fill="#E2E2F0" rx="2.5" ry="2.5" style="stroke:#181818;stroke-width:0.5;"/><text x="17" y="234.889" fill="#000" font-size="14" textLength="24.938">Bob</text><rect x="105.825" y="217" width="44.45" height="28" fill="#E2E2F0" rx="2.5" ry="2.5" style="stroke:#181818;stroke-width:0.5;"/><text x="112.825" y="234.889" fill="#000" font-size="14" textLength="30.45">Alice</text><line x1="29.469" y1="66" x2="71.469" y2="66" style="stroke:#181818;stroke-width:1;"/><line x1="71.469" y1="66" x2="71.469" y2="79" style="stroke:#181818;stroke-width:1;"/><line x1="30.469" y1="79" x2="71.469" y2="79" style="stroke:#181818;stroke-width:1;"/><polygon points="40.469,75,30.469,79,40.469,83,36.469,79" fill="#181818" style="stroke:#181818;stroke-width:1;stroke-linejoin:miter;stroke-miterlimit:10;"/><text x="36.469" y="61.111" fill="#000" font-size="13" textLength="34.775">hello1</text><line x1="29.469" y1="93" x2="71.469" y2="93" style="stroke:#181818;stroke-width:1;"/><line x1="71.469" y1="93" x2="71.469" y2="106" style="stroke:#181818;stroke-width:1;"/><line x1="30.469" y1="106" x2="71.469" y2="106" style="stroke:#181818;stroke-width:1;"/><polygon points="40.469,102,30.469,106,40.469,110,36.469,106" fill="#181818" style="stroke:#181818;stroke-width:1;stroke-linejoin:miter;stroke-miterlimit:10;"/><text x="36.469" y="88.111" fill="#000" font-size="13" textLength="34.775">hello2</text><line x1="29.469" y1="146" x2="71.469" y2="146" style="stroke:#181818;stroke-width:1;"/><line x1="71.469" y1="146" x2="71.469" y2="159" style="stroke:#181818;stroke-width:1;"/><line x1="30.469" y1="159" x2="71.469" y2="159" style="stroke:#181818;stroke-width:1;"/><polygon points="40.469,155,30.469,159,40.469,163,36.469,159" fill="#181818" style="stroke:#181818;stroke-width:1;stroke-linejoin:miter;stroke-miterlimit:10;"/><text x="36.469" y="115.111" fill="#000" font-size="13" textLength="44.119">this is an</text><text x="36.469" y="128.111" fill="#000" font-size="13" textLength="84.581">example of long</text><text x="36.469" y="141.111" fill="#000" font-size="13" textLength="52.731">message</text><polygon points="116.05,195,126.05,199,116.05,203,120.05,199" fill="#181818" style="stroke:#181818;stroke-width:1;stroke-linejoin:miter;stroke-miterlimit:10;"/><line x1="29.469" y1="199" x2="122.05" y2="199" style="stroke:#181818;stroke-width:1;"/><text x="36.469" y="168.111" fill="#000" font-size="13" textLength="43.387">And this</text><text x="36.469" y="181.111" fill="#000" font-size="13" textLength="67.925">is an other on</text><text x="36.469" y="194.111" fill="#000" font-size="13" textLength="67.194">very long too</text></g></svg>