<svg xmlns="http://www.w3.org/2000/svg" xmlns:xlink="http://www.w3.org/1999/xlink" version="1.1" data-diagram-type="SEQUENCE" style="width:239px;height:130px;background:#FFFFFF;" width="239px" height="130px" viewBox="0 0 239 130" zoomAndPan="magnify" preserveAspectRatio="none" contentStyleType="text/css"><defs/><g font-family="sans-serif" lengthAdjust="spacing"><g><title>alice</title><rect x="27.938" y="39" width="8" height="51" fill="#000" fill-opacity="0"/><line x1="31.438" y1="39" x2="31.438" y2="90" style="stroke:#181818;stroke-width:0.5;stroke-dasharray:5,5;"/></g><g><title>bob</title><rect x="109.706" y="39" width="8" height="51" fill="#000" fill-opacity="0"/><line x1="113.206" y1="39" x2="113.206" y2="90" style="stroke:#181818;stroke-width:0.5;stroke-dasharray:5,5;"/></g><rect x="10" y="10" width="42.875" height="28" fill="#E2E2F0" rx="2.5" ry="2.5" style="stroke:#181818;stroke-width:0.5;"/><text x="17" y="27.889" fill="#000" font-size="14" textLength="28.875">alice</text><rect x="94.525" y="10" width="37.363" height="28" fill="#E2E2F0" rx="2.5" ry="2.5" style="stroke:#181818;stroke-width:0.5;"/><text x="101.525" y="27.889" fill="#000" font-size="14" textLength="23.363">bob</text><rect x="10" y="90" width="42.875" height="28" fill="#E2E2F0" rx="2.5" ry="2.5" style="stroke:#181818;stroke-width:0.5;"/><text x="17" y="107.889" fill="#000" font-size="14" textLength="28.875">alice</text><rect x="94.525" y="90" width="37.363" height="28" fill="#E2E2F0" rx="2.5" ry="2.5" style="stroke:#181818;stroke-width:0.5;"/><text x="101.525" y="107.889" fill="#000" font-size="14" textLength="23.363">bob</text><path d="M118.206,52 L118.206,75 L223.206,75 L223.206,62 L213.206,52 L118.206,52" fill="#FEFFDD" style="stroke:#181818;stroke-width:0.5;"/><path d="M213.206,52 L213.206,62 L223.206,62 L213.206,52" fill="#FEFFDD" style="stroke:#181818;stroke-width:0.5;"/><text x="124.206" y="67.111" fill="#000" font-size="13" textLength="84.5">Some right note</text><polygon points="101.206,62,111.206,66,101.206,70,105.206,66" fill="#181818" style="stroke:#181818;stroke-width:1;stroke-linejoin:miter;stroke-miterlimit:10;"/><line x1="31.438" y1="66" x2="107.206" y2="66" style="stroke:#181818;stroke-width:1;"/><text x="38.438" y="61.111" fill="#000" font-size="13" textLength="57.769">this is a test</text></g></svg>