<svg xmlns="http://www.w3.org/2000/svg" xmlns:xlink="http://www.w3.org/1999/xlink" version="1.1" data-diagram-type="SEQUENCE" style="width:299px;height:194px;background:#FFFFFF;" width="299px" height="194px" viewBox="0 0 299 194" zoomAndPan="magnify" preserveAspectRatio="none" contentStyleType="text/css"><defs/><g font-family="sans-serif" lengthAdjust="spacing"><rect x="13" y="51" width="266.75" height="79" fill="none" style="stroke:#000;stroke-width:1.5;"/><g><title>A</title><rect x="25.5" y="39" width="8" height="115" fill="#000" fill-opacity="0"/><line x1="29" y1="39" x2="29" y2="154" style="stroke:#181818;stroke-width:0.5;stroke-dasharray:5,5;"/></g><g><title>B</title><rect x="58.863" y="39" width="8" height="115" fill="#000" fill-opacity="0"/><line x1="62.363" y1="39" x2="62.363" y2="154" style="stroke:#181818;stroke-width:0.5;stroke-dasharray:5,5;"/></g><g><title>C</title><rect x="92.619" y="39" width="8" height="115" fill="#000" fill-opacity="0"/><line x1="96.119" y1="39" x2="96.119" y2="154" style="stroke:#181818;stroke-width:0.5;stroke-dasharray:5,5;"/></g><g><title>D</title><rect x="126.769" y="39" width="8" height="115" fill="#000" fill-opacity="0"/><line x1="130.269" y1="39" x2="130.269" y2="154" style="stroke:#181818;stroke-width:0.5;stroke-dasharray:5,5;"/></g><g><title>E</title><rect x="160.525" y="39" width="8" height="115" fill="#000" fill-opacity="0"/><line x1="164.025" y1="39" x2="164.025" y2="154" style="stroke:#181818;stroke-width:0.5;stroke-dasharray:5,5;"/></g><g><title>?</title><rect x="260.25" y="39" width="8" height="115" fill="#000" fill-opacity="0"/><line x1="263.75" y1="39" x2="263.75" y2="154" style="stroke:#181818;stroke-width:0.5;stroke-dasharray:5,5;"/></g><rect x="17.319" y="10" width="23.362" height="28" fill="#E2E2F0" rx="2.5" ry="2.5" style="stroke:#181818;stroke-width:0.5;"/><text x="24.319" y="27.889" fill="#000" font-size="14">A</text><rect x="50.681" y="10" width="23.362" height="28" fill="#E2E2F0" rx="2.5" ry="2.5" style="stroke:#181818;stroke-width:0.5;"/><text x="57.681" y="27.889" fill="#000" font-size="14">B</text><rect x="84.044" y="10" width="24.15" height="28" fill="#E2E2F0" rx="2.5" ry="2.5" style="stroke:#181818;stroke-width:0.5;"/><text x="91.044" y="27.889" fill="#000" font-size="14">C</text><rect x="118.194" y="10" width="24.15" height="28" fill="#E2E2F0" rx="2.5" ry="2.5" style="stroke:#181818;stroke-width:0.5;"/><text x="125.194" y="27.889" fill="#000" font-size="14">D</text><rect x="152.344" y="10" width="23.362" height="28" fill="#E2E2F0" rx="2.5" ry="2.5" style="stroke:#181818;stroke-width:0.5;"/><text x="159.344" y="27.889" fill="#000" font-size="14">E</text><rect x="252.856" y="10" width="21.788" height="28" fill="#E2E2F0" rx="2.5" ry="2.5" style="stroke:#181818;stroke-width:0.5;"/><text x="259.856" y="27.889" fill="#000" font-size="14">?</text><rect x="17.319" y="154" width="23.362" height="28" fill="#E2E2F0" rx="2.5" ry="2.5" style="stroke:#181818;stroke-width:0.5;"/><text x="24.319" y="171.889" fill="#000" font-size="14">A</text><rect x="50.681" y="154" width="23.362" height="28" fill="#E2E2F0" rx="2.5" ry="2.5" style="stroke:#181818;stroke-width:0.5;"/><text x="57.681" y="171.889" fill="#000" font-size="14">B</text><rect x="84.044" y="154" width="24.15" height="28" fill="#E2E2F0" rx="2.5" ry="2.5" style="stroke:#181818;stroke-width:0.5;"/><text x="91.044" y="171.889" fill="#000" font-size="14">C</text><rect x="118.194" y="154" width="24.15" height="28" fill="#E2E2F0" rx="2.5" ry="2.5" style="stroke:#181818;stroke-width:0.5;"/><text x="125.194" y="171.889" fill="#000" font-size="14">D</text><rect x="152.344" y="154" width="23.362" height="28" fill="#E2E2F0" rx="2.5" ry="2.5" style="stroke:#181818;stroke-width:0.5;"/><text x="159.344" y="171.889" fill="#000" font-size="14">E</text><rect x="252.856" y="154" width="21.788" height="28" fill="#E2E2F0" rx="2.5" ry="2.5" style="stroke:#181818;stroke-width:0.5;"/><text x="259.856" y="171.889" fill="#000" font-size="14">?</text><path d="M13,51 L91.231,51 L91.231,56 L81.231,66 L13,66 L13,51" fill="#EEE" style="stroke:#000;stroke-width:1.5;"/><rect x="13" y="51" width="266.75" height="79" fill="none" style="stroke:#000;stroke-width:1.5;"/><text x="28" y="62.111" fill="#000" font-size="13" textLength="33.231" font-weight="700">group</text><polygon points="251.75,91,261.75,95,251.75,99,255.75,95" fill="#181818" style="stroke:#181818;stroke-width:1;stroke-linejoin:miter;stroke-miterlimit:10;"/><line x1="29" y1="95" x2="257.75" y2="95" style="stroke:#181818;stroke-width:1;"/><text x="36" y="90.111" fill="#000" font-size="13" textLength="18.038">M1</text><polygon points="175.025,118,165.025,122,175.025,126,171.025,122" fill="#181818" style="stroke:#181818;stroke-width:1;stroke-linejoin:miter;stroke-miterlimit:10;"/><line x1="169.025" y1="122" x2="262.75" y2="122" style="stroke:#181818;stroke-width:1;stroke-dasharray:2,2;"/><text x="181.025" y="117.111" fill="#000" font-size="13" textLength="75.725">M2 [Grouped]</text></g></svg>