<svg xmlns="http://www.w3.org/2000/svg" xmlns:xlink="http://www.w3.org/1999/xlink" version="1.1" data-diagram-type="SEQUENCE" style="width:653px;height:457px;background:#FFFFFF;" width="653px" height="457px" viewBox="0 0 653 457" zoomAndPan="magnify" preserveAspectRatio="none" contentStyleType="text/css"><defs/><g font-family="sans-serif" lengthAdjust="spacing"><g><title>Testing</title><rect x="354.156" y="39" width="8" height="378" fill="#000" fill-opacity="0"/><line x1="357.656" y1="39" x2="357.656" y2="417" style="stroke:#181818;stroke-width:0.5;stroke-dasharray:5,5;"/></g><g><title></title><rect x="352.656" y="199" width="10" height="80" fill="#FFF" style="stroke:#181818;stroke-width:1;"/></g><g><title></title><rect x="352.656" y="119" width="10" height="240" fill="#FFF" style="stroke:#181818;stroke-width:1;"/></g><rect x="327.688" y="10" width="59.938" height="28" fill="#E2E2F0" rx="2.5" ry="2.5" style="stroke:#181818;stroke-width:0.5;"/><text x="334.688" y="27.889" fill="#000" font-size="14" textLength="45.938">Testing</text><rect x="327.688" y="417" width="59.938" height="28" fill="#E2E2F0" rx="2.5" ry="2.5" style="stroke:#181818;stroke-width:0.5;"/><text x="334.688" y="434.889" fill="#000" font-size="14" textLength="45.938">Testing</text><line x1="315.656" y1="66" x2="356.656" y2="66" style="stroke:#181818;stroke-width:1;"/><line x1="315.656" y1="66" x2="315.656" y2="79" style="stroke:#181818;stroke-width:1;"/><line x1="315.656" y1="79" x2="355.656" y2="79" style="stroke:#181818;stroke-width:1;"/><polygon points="345.656,75,355.656,79,345.656,83,349.656,79" fill="#181818" style="stroke:#181818;stroke-width:1;stroke-linejoin:miter;stroke-miterlimit:10;"/><text x="187.425" y="61.111" fill="#000" font-size="13" textLength="163.231">1st self message, no activation</text><path d="M15,52 L15,75 L175,75 L175,62 L165,52 L15,52" fill="#FEFFDD" style="stroke:#181818;stroke-width:0.5;"/><path d="M165,52 L165,62 L175,62 L165,52" fill="#FEFFDD" style="stroke:#181818;stroke-width:0.5;"/><text x="21" y="67.111" fill="#000" font-size="13" textLength="139.425">A note on the self message</text><line x1="310.656" y1="106" x2="356.656" y2="106" style="stroke:#181818;stroke-width:1;"/><line x1="310.656" y1="106" x2="310.656" y2="119" style="stroke:#181818;stroke-width:1;"/><line x1="310.656" y1="119" x2="351.656" y2="119" style="stroke:#181818;stroke-width:1;"/><polygon points="341.656,115,351.656,119,341.656,123,345.656,119" fill="#181818" style="stroke:#181818;stroke-width:1;stroke-linejoin:miter;stroke-miterlimit:10;"/><text x="149.925" y="101.111" fill="#000" font-size="13" textLength="195.731">2nd self message, starting activation</text><line x1="310.656" y1="146" x2="351.656" y2="146" style="stroke:#181818;stroke-width:1;"/><line x1="310.656" y1="146" x2="310.656" y2="159" style="stroke:#181818;stroke-width:1;"/><line x1="310.656" y1="159" x2="350.656" y2="159" style="stroke:#181818;stroke-width:1;"/><polygon points="340.656,155,350.656,159,340.656,163,344.656,159" fill="#181818" style="stroke:#181818;stroke-width:1;stroke-linejoin:miter;stroke-miterlimit:10;"/><text x="183.156" y="141.111" fill="#000" font-size="13" textLength="162.5">2.5th self message, no change</text><path d="M367.656,132 L367.656,155 L527.656,155 L527.656,142 L517.656,132 L367.656,132" fill="#FEFFDD" style="stroke:#181818;stroke-width:0.5;"/><path d="M517.656,132 L517.656,142 L527.656,142 L517.656,132" fill="#FEFFDD" style="stroke:#181818;stroke-width:0.5;"/><text x="373.656" y="147.111" fill="#000" font-size="13" textLength="139.425">A note on the self message</text><line x1="305.656" y1="186" x2="351.656" y2="186" style="stroke:#181818;stroke-width:1;stroke-dasharray:2,2;"/><line x1="305.656" y1="186" x2="305.656" y2="199" style="stroke:#181818;stroke-width:1;stroke-dasharray:2,2;"/><line x1="305.656" y1="199" x2="346.656" y2="199" style="stroke:#181818;stroke-width:1;stroke-dasharray:2,2;"/><polygon points="336.656,195,346.656,199,336.656,203,340.656,199" fill="#181818" style="stroke:#181818;stroke-width:1;stroke-linejoin:miter;stroke-miterlimit:10;"/><text x="107.388" y="181.111" fill="#000" font-size="13" textLength="233.269">3rd self message, staring another activation</text><line x1="367.656" y1="226" x2="409.656" y2="226" style="stroke:#181818;stroke-width:1;"/><line x1="409.656" y1="226" x2="409.656" y2="239" style="stroke:#181818;stroke-width:1;"/><line x1="368.656" y1="239" x2="409.656" y2="239" style="stroke:#181818;stroke-width:1;"/><polygon points="378.656,235,368.656,239,378.656,243,374.656,239" fill="#181818" style="stroke:#181818;stroke-width:1;stroke-linejoin:miter;stroke-miterlimit:10;"/><text x="374.656" y="221.111" fill="#000" font-size="13" textLength="277.388">4th self message, continuing in the current activation</text><path d="M192.231,212 L192.231,235 L352.231,235 L352.231,222 L342.231,212 L192.231,212" fill="#FEFFDD" style="stroke:#181818;stroke-width:0.5;"/><path d="M342.231,212 L342.231,222 L352.231,222 L342.231,212" fill="#FEFFDD" style="stroke:#181818;stroke-width:0.5;"/><text x="198.231" y="227.111" fill="#000" font-size="13" textLength="139.425">A note on the self message</text><line x1="305.656" y1="266" x2="346.656" y2="266" style="stroke:#181818;stroke-width:1;"/><line x1="305.656" y1="266" x2="305.656" y2="279" style="stroke:#181818;stroke-width:1;"/><line x1="305.656" y1="279" x2="350.656" y2="279" style="stroke:#181818;stroke-width:1;"/><polygon points="340.656,275,350.656,279,340.656,283,344.656,279" fill="#181818" style="stroke:#181818;stroke-width:1;stroke-linejoin:miter;stroke-miterlimit:10;"/><text x="148.5" y="261.111" fill="#000" font-size="13" textLength="192.156">5th self message, deactivating once</text><line x1="310.656" y1="306" x2="351.656" y2="306" style="stroke:#181818;stroke-width:1;"/><line x1="310.656" y1="306" x2="310.656" y2="319" style="stroke:#181818;stroke-width:1;"/><line x1="310.656" y1="319" x2="350.656" y2="319" style="stroke:#181818;stroke-width:1;"/><polygon points="340.656,315,350.656,319,340.656,323,344.656,319" fill="#181818" style="stroke:#181818;stroke-width:1;stroke-linejoin:miter;stroke-miterlimit:10;"/><text x="118.806" y="301.111" fill="#000" font-size="13" textLength="226.85">6th self message, continuing the activation</text><line x1="310.656" y1="346" x2="351.656" y2="346" style="stroke:#181818;stroke-width:1;"/><line x1="310.656" y1="346" x2="310.656" y2="359" style="stroke:#181818;stroke-width:1;"/><line x1="310.656" y1="359" x2="355.656" y2="359" style="stroke:#181818;stroke-width:1;"/><polygon points="345.656,355,355.656,359,345.656,363,349.656,359" fill="#181818" style="stroke:#181818;stroke-width:1;stroke-linejoin:miter;stroke-miterlimit:10;"/><text x="140.5" y="341.111" fill="#000" font-size="13" textLength="205.156">7th self message, exiting the activation</text><line x1="315.656" y1="386" x2="356.656" y2="386" style="stroke:#181818;stroke-width:1;"/><line x1="315.656" y1="386" x2="315.656" y2="399" style="stroke:#181818;stroke-width:1;"/><line x1="315.656" y1="399" x2="355.656" y2="399" style="stroke:#181818;stroke-width:1;"/><polygon points="345.656,395,355.656,399,345.656,403,349.656,399" fill="#181818" style="stroke:#181818;stroke-width:1;stroke-linejoin:miter;stroke-miterlimit:10;"/><text x="186.694" y="381.111" fill="#000" font-size="13" textLength="163.963">8th self message, no activation</text></g></svg>