<svg xmlns="http://www.w3.org/2000/svg" xmlns:xlink="http://www.w3.org/1999/xlink" version="1.1" data-diagram-type="SEQUENCE" style="width:359px;height:415px;background:#FFFFFF;" width="359px" height="415px" viewBox="0 0 359 415" zoomAndPan="magnify" preserveAspectRatio="none" contentStyleType="text/css"><defs/><g font-family="sans-serif" lengthAdjust="spacing"><rect x="13" y="78" width="326.025" height="273" fill="none" style="stroke:#000;stroke-width:1.5;"/><rect x="32" y="175" width="282.025" height="106" fill="none" style="stroke:#000;stroke-width:1.5;"/><rect x="51" y="202" width="192.581" height="52" fill="none" style="stroke:#000;stroke-width:1.5;"/><g><title>Alice</title><rect x="63.5" y="39" width="8" height="336" fill="#000" fill-opacity="0"/><line x1="67" y1="39" x2="67" y2="375" style="stroke:#181818;stroke-width:0.5;stroke-dasharray:5,5;"/></g><g><title>Bob</title><rect x="224.081" y="39" width="8" height="336" fill="#000" fill-opacity="0"/><line x1="227.581" y1="39" x2="227.581" y2="375" style="stroke:#181818;stroke-width:0.5;stroke-dasharray:5,5;"/></g><g><title>Log</title><rect x="294.525" y="39" width="8" height="336" fill="#000" fill-opacity="0"/><line x1="298.025" y1="39" x2="298.025" y2="375" style="stroke:#181818;stroke-width:0.5;stroke-dasharray:5,5;"/></g><rect x="44.775" y="10" width="44.45" height="28" fill="#E2E2F0" rx="2.5" ry="2.5" style="stroke:#181818;stroke-width:0.5;"/><text x="51.775" y="27.889" fill="#000" font-size="14" textLength="30.45">Alice</text><rect x="208.113" y="10" width="38.938" height="28" fill="#E2E2F0" rx="2.5" ry="2.5" style="stroke:#181818;stroke-width:0.5;"/><text x="215.113" y="27.889" fill="#000" font-size="14" textLength="24.938">Bob</text><rect x="279.344" y="10" width="37.363" height="28" fill="#E2E2F0" rx="2.5" ry="2.5" style="stroke:#181818;stroke-width:0.5;"/><text x="286.344" y="27.889" fill="#000" font-size="14" textLength="23.363">Log</text><rect x="44.775" y="375" width="44.45" height="28" fill="#E2E2F0" rx="2.5" ry="2.5" style="stroke:#181818;stroke-width:0.5;"/><text x="51.775" y="392.889" fill="#000" font-size="14" textLength="30.45">Alice</text><rect x="208.113" y="375" width="38.938" height="28" fill="#E2E2F0" rx="2.5" ry="2.5" style="stroke:#181818;stroke-width:0.5;"/><text x="215.113" y="392.889" fill="#000" font-size="14" textLength="24.938">Bob</text><rect x="279.344" y="375" width="37.363" height="28" fill="#E2E2F0" rx="2.5" ry="2.5" style="stroke:#181818;stroke-width:0.5;"/><text x="286.344" y="392.889" fill="#000" font-size="14" textLength="23.363">Log</text><polygon points="215.581,62,225.581,66,215.581,70,219.581,66" fill="#181818" style="stroke:#181818;stroke-width:1;stroke-linejoin:miter;stroke-miterlimit:10;"/><line x1="67" y1="66" x2="221.581" y2="66" style="stroke:#181818;stroke-width:1;"/><text x="74" y="61.111" fill="#000" font-size="13" textLength="130.813">Authentication Request</text><path d="M13,78 L71.731,78 L71.731,83 L61.731,93 L13,93 L13,78" fill="#EEE" style="stroke:#000;stroke-width:1.5;"/><rect x="13" y="78" width="326.025" height="273" fill="none" style="stroke:#000;stroke-width:1.5;"/><text x="28" y="89.111" fill="#000" font-size="13" textLength="13.731" font-weight="700">alt</text><text x="86.731" y="88.556" fill="#000" font-size="11" textLength="80.644" font-weight="700">[successful case]</text><polygon points="78,118,68,122,78,126,74,122" fill="#181818" style="stroke:#181818;stroke-width:1;stroke-linejoin:miter;stroke-miterlimit:10;"/><line x1="72" y1="122" x2="226.581" y2="122" style="stroke:#181818;stroke-width:1;stroke-dasharray:2,2;"/><text x="84" y="117.111" fill="#000" font-size="13" textLength="136.581">Authentication Accepted</text><line x1="13" y1="148" x2="339.025" y2="148" style="stroke:#000;stroke-width:1;stroke-dasharray:2,2;"/><text x="18" y="158.556" fill="#000" font-size="11" textLength="92.263" font-weight="700">[some kind of failure]</text><polygon points="78,188,68,192,78,196,74,192" fill="#181818" style="stroke:#181818;stroke-width:1;stroke-linejoin:miter;stroke-miterlimit:10;"/><line x1="72" y1="192" x2="226.581" y2="192" style="stroke:#181818;stroke-width:1;stroke-dasharray:2,2;"/><text x="84" y="187.111" fill="#000" font-size="13" textLength="122.2">Authentication Failure</text><polygon points="286.025,215,296.025,219,286.025,223,290.025,219" fill="#181818" style="stroke:#181818;stroke-width:1;stroke-linejoin:miter;stroke-miterlimit:10;"/><line x1="67" y1="219" x2="292.025" y2="219" style="stroke:#181818;stroke-width:1;"/><text x="74" y="214.111" fill="#000" font-size="13" textLength="81.494">Log attack start</text><polygon points="215.581,242,225.581,246,215.581,250,219.581,246" fill="#181818" style="stroke:#181818;stroke-width:1;stroke-linejoin:miter;stroke-miterlimit:10;"/><line x1="67" y1="246" x2="221.581" y2="246" style="stroke:#181818;stroke-width:1;"/><text x="74" y="241.111" fill="#000" font-size="13" textLength="63.619">DNS Attack</text><polygon points="286.025,269,296.025,273,286.025,277,290.025,273" fill="#181818" style="stroke:#181818;stroke-width:1;stroke-linejoin:miter;stroke-miterlimit:10;"/><line x1="67" y1="273" x2="292.025" y2="273" style="stroke:#181818;stroke-width:1;"/><text x="74" y="268.111" fill="#000" font-size="13" textLength="78">Log attack end</text><line x1="13" y1="299" x2="339.025" y2="299" style="stroke:#000;stroke-width:1;stroke-dasharray:2,2;"/><text x="18" y="309.556" fill="#000" font-size="11" textLength="104.431" font-weight="700">[Another type of failure]</text><polygon points="78,339,68,343,78,347,74,343" fill="#181818" style="stroke:#181818;stroke-width:1;stroke-linejoin:miter;stroke-miterlimit:10;"/><line x1="72" y1="343" x2="226.581" y2="343" style="stroke:#181818;stroke-width:1;stroke-dasharray:2,2;"/><text x="84" y="338.111" fill="#000" font-size="13" textLength="76.619">Please repeat</text></g></svg>