<svg xmlns="http://www.w3.org/2000/svg" xmlns:xlink="http://www.w3.org/1999/xlink" version="1.1" data-diagram-type="SEQUENCE" style="width:385px;height:274px;background:#FFFFFF;" width="385px" height="274px" viewBox="0 0 385 274" zoomAndPan="magnify" preserveAspectRatio="none" contentStyleType="text/css"><defs/><g font-family="sans-serif" lengthAdjust="spacing"><rect x="10" y="51" width="364.113" height="91" fill="none" style="stroke:none;"/><text x="184.825" y="65.111" fill="#000" font-size="13" textLength="14.463" font-weight="700">p1</text><rect x="10" y="51" width="364.113" height="91" fill="none" style="stroke:#000;stroke-width:1.5;"/><rect x="10" y="160" width="364.113" height="64" fill="none" style="stroke:none;"/><text x="184.825" y="174.111" fill="#000" font-size="13" textLength="14.463" font-weight="700">p2</text><rect x="10" y="160" width="364.113" height="64" fill="none" style="stroke:#000;stroke-width:1.5;"/><g><title>a</title><rect x="133.038" y="39" width="8" height="195" fill="#000" fill-opacity="0"/><line x1="136.538" y1="39" x2="136.538" y2="234" style="stroke:#181818;stroke-width:0.5;stroke-dasharray:5,5;"/></g><g><title>b</title><rect x="181.575" y="39" width="8" height="195" fill="#000" fill-opacity="0"/><line x1="185.075" y1="39" x2="185.075" y2="234" style="stroke:#181818;stroke-width:0.5;stroke-dasharray:5,5;"/></g><g><title>c</title><rect x="230.113" y="39" width="8" height="195" fill="#000" fill-opacity="0"/><line x1="233.613" y1="39" x2="233.613" y2="234" style="stroke:#181818;stroke-width:0.5;stroke-dasharray:5,5;"/></g><rect x="125.644" y="10" width="21.788" height="28" fill="#E2E2F0" rx="2.5" ry="2.5" style="stroke:#181818;stroke-width:0.5;"/><text x="132.644" y="27.889" fill="#000" font-size="14">a</text><rect x="174.181" y="10" width="21.788" height="28" fill="#E2E2F0" rx="2.5" ry="2.5" style="stroke:#181818;stroke-width:0.5;"/><text x="181.181" y="27.889" fill="#000" font-size="14">b</text><rect x="223.113" y="10" width="21" height="28" fill="#E2E2F0" rx="2.5" ry="2.5" style="stroke:#181818;stroke-width:0.5;"/><text x="230.113" y="27.889" fill="#000" font-size="14">c</text><rect x="125.644" y="234" width="21.788" height="28" fill="#E2E2F0" rx="2.5" ry="2.5" style="stroke:#181818;stroke-width:0.5;"/><text x="132.644" y="251.889" fill="#000" font-size="14">a</text><rect x="174.181" y="234" width="21.788" height="28" fill="#E2E2F0" rx="2.5" ry="2.5" style="stroke:#181818;stroke-width:0.5;"/><text x="181.181" y="251.889" fill="#000" font-size="14">b</text><rect x="223.113" y="234" width="21" height="28" fill="#E2E2F0" rx="2.5" ry="2.5" style="stroke:#181818;stroke-width:0.5;"/><text x="230.113" y="251.889" fill="#000" font-size="14">c</text><text x="184.825" y="65.111" fill="#000" font-size="13" textLength="14.463" font-weight="700">p1</text><rect x="10" y="51" width="364.113" height="91" fill="none" style="stroke:#000;stroke-width:1.5;"/><polygon points="221.613,97,231.613,101,221.613,105,225.613,101" fill="#181818" style="stroke:#181818;stroke-width:1;stroke-linejoin:miter;stroke-miterlimit:10;"/><line x1="185.075" y1="101" x2="227.613" y2="101" style="stroke:#181818;stroke-width:1;"/><text x="192.075" y="96.111" fill="#000" font-size="13" textLength="24.538">msg</text><polygon points="196.075,124,186.075,128,196.075,132,192.075,128" fill="#181818" style="stroke:#181818;stroke-width:1;stroke-linejoin:miter;stroke-miterlimit:10;"/><line x1="190.075" y1="128" x2="232.613" y2="128" style="stroke:#181818;stroke-width:1;stroke-dasharray:2,2;"/><text x="202.075" y="123.111" fill="#000" font-size="13" textLength="18.769">OK</text><path d="M238.613,114 L238.613,137 L343.613,137 L343.613,124 L333.613,114 L238.613,114" fill="#FEFFDD" style="stroke:#181818;stroke-width:0.5;"/><path d="M333.613,114 L333.613,124 L343.613,124 L333.613,114" fill="#FEFFDD" style="stroke:#181818;stroke-width:0.5;"/><text x="244.613" y="129.111" fill="#000" font-size="13" textLength="84.5">Some right note</text><text x="184.825" y="174.111" fill="#000" font-size="13" textLength="14.463" font-weight="700">p2</text><rect x="10" y="160" width="364.113" height="64" fill="none" style="stroke:#000;stroke-width:1.5;"/><polygon points="173.075,206,183.075,210,173.075,214,177.075,210" fill="#181818" style="stroke:#181818;stroke-width:1;stroke-linejoin:miter;stroke-miterlimit:10;"/><line x1="136.538" y1="210" x2="179.075" y2="210" style="stroke:#181818;stroke-width:1;"/><text x="143.538" y="205.111" fill="#000" font-size="13" textLength="24.538">msg</text><path d="M34,196 L34,219 L131,219 L131,206 L121,196 L34,196" fill="#FEFFDD" style="stroke:#181818;stroke-width:0.5;"/><path d="M121,196 L121,206 L131,206 L121,196" fill="#FEFFDD" style="stroke:#181818;stroke-width:0.5;"/><text x="40" y="211.111" fill="#000" font-size="13" textLength="76.538">Some left note</text></g></svg>