<svg xmlns="http://www.w3.org/2000/svg" xmlns:xlink="http://www.w3.org/1999/xlink" version="1.1" data-diagram-type="SEQUENCE" style="width:386px;height:178px;background:#FFFFFF;" width="386px" height="178px" viewBox="0 0 386 178" zoomAndPan="magnify" preserveAspectRatio="none" contentStyleType="text/css"><defs/><g font-family="sans-serif" lengthAdjust="spacing"><g><title>b</title><rect x="17.394" y="39" width="8" height="99" fill="#000" fill-opacity="0"/><line x1="20.894" y1="39" x2="20.894" y2="138" style="stroke:#181818;stroke-width:0.5;stroke-dasharray:5,5;"/></g><g><title></title><rect x="15.894" y="39" width="10" height="27" fill="#FFF" style="stroke:#181818;stroke-width:1;"/></g><g><title>a --++</title><rect x="85.594" y="39" width="8" height="99" fill="#000" fill-opacity="0"/><line x1="89.094" y1="39" x2="89.094" y2="138" style="stroke:#181818;stroke-width:0.5;stroke-dasharray:5,5;"/></g><g><title>a</title><rect x="130.244" y="39" width="8" height="99" fill="#000" fill-opacity="0"/><line x1="133.744" y1="39" x2="133.744" y2="138" style="stroke:#181818;stroke-width:0.5;stroke-dasharray:5,5;"/></g><g><title>b --++</title><rect x="203.4" y="39" width="8" height="99" fill="#000" fill-opacity="0"/><line x1="206.9" y1="39" x2="206.9" y2="138" style="stroke:#181818;stroke-width:0.5;stroke-dasharray:5,5;"/></g><g><title>a ++</title><rect x="256.275" y="39" width="8" height="99" fill="#000" fill-opacity="0"/><line x1="259.775" y1="39" x2="259.775" y2="138" style="stroke:#181818;stroke-width:0.5;stroke-dasharray:5,5;"/></g><g><title>m --++</title><rect x="311.075" y="39" width="8" height="99" fill="#000" fill-opacity="0"/><line x1="314.575" y1="39" x2="314.575" y2="138" style="stroke:#181818;stroke-width:0.5;stroke-dasharray:5,5;"/></g><g><title>m</title><rect x="359.575" y="39" width="8" height="99" fill="#000" fill-opacity="0"/><line x1="363.075" y1="39" x2="363.075" y2="138" style="stroke:#181818;stroke-width:0.5;stroke-dasharray:5,5;"/></g><rect x="10" y="10" width="21.788" height="28" fill="#E2E2F0" rx="2.5" ry="2.5" style="stroke:#181818;stroke-width:0.5;"/><text x="17" y="27.889" fill="#000" font-size="14">b</text><rect x="65.338" y="10" width="47.512" height="28" fill="#E2E2F0" rx="2.5" ry="2.5" style="stroke:#181818;stroke-width:0.5;"/><text x="72.338" y="27.889" fill="#000" font-size="14" textLength="33.512">a --++</text><rect x="122.85" y="10" width="21.788" height="28" fill="#E2E2F0" rx="2.5" ry="2.5" style="stroke:#181818;stroke-width:0.5;"/><text x="129.85" y="27.889" fill="#000" font-size="14">a</text><rect x="183.144" y="10" width="47.512" height="28" fill="#E2E2F0" rx="2.5" ry="2.5" style="stroke:#181818;stroke-width:0.5;"/><text x="190.144" y="27.889" fill="#000" font-size="14" textLength="33.512">b --++</text><rect x="240.656" y="10" width="38.238" height="28" fill="#E2E2F0" rx="2.5" ry="2.5" style="stroke:#181818;stroke-width:0.5;"/><text x="247.656" y="27.889" fill="#000" font-size="14" textLength="24.238">a ++</text><rect x="288.894" y="10" width="51.363" height="28" fill="#E2E2F0" rx="2.5" ry="2.5" style="stroke:#181818;stroke-width:0.5;"/><text x="295.894" y="27.889" fill="#000" font-size="14" textLength="37.363">m --++</text><rect x="350.256" y="10" width="25.638" height="28" fill="#E2E2F0" rx="2.5" ry="2.5" style="stroke:#181818;stroke-width:0.5;"/><text x="357.256" y="27.889" fill="#000" font-size="14">m</text><rect x="10" y="138" width="21.788" height="28" fill="#E2E2F0" rx="2.5" ry="2.5" style="stroke:#181818;stroke-width:0.5;"/><text x="17" y="155.889" fill="#000" font-size="14">b</text><rect x="65.338" y="138" width="47.512" height="28" fill="#E2E2F0" rx="2.5" ry="2.5" style="stroke:#181818;stroke-width:0.5;"/><text x="72.338" y="155.889" fill="#000" font-size="14" textLength="33.512">a --++</text><rect x="122.85" y="138" width="21.788" height="28" fill="#E2E2F0" rx="2.5" ry="2.5" style="stroke:#181818;stroke-width:0.5;"/><text x="129.85" y="155.889" fill="#000" font-size="14">a</text><rect x="183.144" y="138" width="47.512" height="28" fill="#E2E2F0" rx="2.5" ry="2.5" style="stroke:#181818;stroke-width:0.5;"/><text x="190.144" y="155.889" fill="#000" font-size="14" textLength="33.512">b --++</text><rect x="240.656" y="138" width="38.238" height="28" fill="#E2E2F0" rx="2.5" ry="2.5" style="stroke:#181818;stroke-width:0.5;"/><text x="247.656" y="155.889" fill="#000" font-size="14" textLength="24.238">a ++</text><rect x="288.894" y="138" width="51.363" height="28" fill="#E2E2F0" rx="2.5" ry="2.5" style="stroke:#181818;stroke-width:0.5;"/><text x="295.894" y="155.889" fill="#000" font-size="14" textLength="37.363">m --++</text><rect x="350.256" y="138" width="25.638" height="28" fill="#E2E2F0" rx="2.5" ry="2.5" style="stroke:#181818;stroke-width:0.5;"/><text x="357.256" y="155.889" fill="#000" font-size="14">m</text><polygon points="77.094,62,87.094,66,77.094,70,81.094,66" fill="#181818" style="stroke:#181818;stroke-width:1;stroke-linejoin:miter;stroke-miterlimit:10;"/><line x1="20.894" y1="66" x2="83.094" y2="66" style="stroke:#181818;stroke-width:1;"/><text x="27.894" y="61.111" fill="#000" font-size="13" textLength="44.2">Hi Alice!</text><polygon points="194.9,89,204.9,93,194.9,97,198.9,93" fill="#181818" style="stroke:#181818;stroke-width:1;stroke-linejoin:miter;stroke-miterlimit:10;"/><line x1="133.744" y1="93" x2="200.9" y2="93" style="stroke:#181818;stroke-width:1;"/><text x="140.744" y="88.111" fill="#000" font-size="13" textLength="49.156">Bye Bob!</text><polygon points="247.775,116,257.775,120,247.775,124,251.775,120" fill="#181818" style="stroke:#181818;stroke-width:1;stroke-linejoin:miter;stroke-miterlimit:10;"/><line x1="20.894" y1="120" x2="253.775" y2="120" style="stroke:#181818;stroke-width:1;"/><text x="27.894" y="115.111" fill="#000" font-size="13" textLength="54.275">Bye Alice!</text><polygon points="302.575,62,312.575,66,302.575,70,306.575,66" fill="#181818" style="stroke:#181818;stroke-width:1;stroke-linejoin:miter;stroke-miterlimit:10;"/><line x1="20.894" y1="66" x2="308.575" y2="66" style="stroke:#181818;stroke-width:1;"/><text x="27.894" y="61.111" fill="#000" font-size="13" textLength="54.275">Bye Alice!</text></g></svg>